<svg xmlns="http://www.w3.org/2000/svg" version="1.1" xmlns:xlink="http://www.w3.org/1999/xlink" xmlns:svgjs="http://svgjs.dev/svgjs" width="128" height="128" viewBox="0 0 128 128"><g transform="matrix(0.8046875,0,0,0.8046875,12.333870967741937,12.333870967741937)"><svg viewBox="0 0 155 155" data-background-color="#ffffff" preserveAspectRatio="xMidYMid meet" height="128" width="128" xmlns="http://www.w3.org/2000/svg" xmlns:xlink="http://www.w3.org/1999/xlink"><g id="tight-bounds" transform="matrix(1,0,0,1,0.25,0.25)"><svg viewBox="0 0 154.5 154.5" height="154.5" width="154.5"><g><svg></svg></g><g><svg viewBox="0 0 154.5 154.5" height="154.5" width="154.5"><mask id="SvgjsMask1049"><rect width="154.5" height="154.5" fill="white"></rect><g transform="matrix(1,0,0,1,44.791571269095186,43.83165)" id="clone"><svg viewBox="0 0 64.91685746180963 66.8367" height="66.8367" width="64.91685746180963"><g><svg viewBox="0 0 64.91685746180963 66.8367" height="66.8367" width="64.91685746180963"><g><svg viewBox="0 0 64.91685746180963 66.8367" height="66.8367" width="64.91685746180963"><g id="SvgjsG1048"><svg viewBox="0 0 64.91685746180963 66.8367" height="66.8367" width="64.91685746180963" id="SvgjsSvg1047"><g><svg viewBox="0 0 64.91685746180963 66.8367" height="66.8367" width="64.91685746180963"><g transform="matrix(1,0,0,1,0,0)"><svg width="64.91685746180963" viewBox="-0.14000000000000012 -35.4 37.32 38.4" height="66.8367" data-palette-color="#152232"><path d="M23.29-19.65L23.29-32.4 34.18-32.4 34.18 0 23.36 0 23.36-13.16 15.36-13.16 15.36-19.65 23.29-19.65ZM13.65-32.4L13.65 0 2.86 0 2.86-32.4 13.65-32.4Z" opacity="1" transform="matrix(1,0,0,1,0,0)" fill="black" class="wordmark-text-0" id="SvgjsPath1046" stroke-width="5" stroke="black" stroke-linejoin="round"></path></svg></g></svg></g></svg></g></svg></g><g></g></svg></g></svg></g></mask><g transform="matrix(1,0,0,1,44.791571269095186,43.83165)"><svg viewBox="0 0 64.91685746180963 66.8367" height="66.8367" width="64.91685746180963"><g><svg viewBox="0 0 64.91685746180963 66.8367" height="66.8367" width="64.91685746180963"><g><svg viewBox="0 0 64.91685746180963 66.8367" height="66.8367" width="64.91685746180963"><g id="textblocktransform"><svg viewBox="0 0 64.91685746180963 66.8367" height="66.8367" width="64.91685746180963" id="textblock"><g><svg viewBox="0 0 64.91685746180963 66.8367" height="66.8367" width="64.91685746180963"><g transform="matrix(1,0,0,1,0,0)"><svg width="64.91685746180963" viewBox="-0.14000000000000012 -35.4 37.32 38.4" height="66.8367" data-palette-color="#152232"><path d="M23.29-19.65L23.29-32.4 34.18-32.4 34.18 0 23.36 0 23.36-13.16 15.36-13.16 15.36-19.65 23.29-19.65ZM13.65-32.4L13.65 0 2.86 0 2.86-32.4 13.65-32.4Z" opacity="1" transform="matrix(1,0,0,1,0,0)" fill="#152232" class="wordmark-text-0" data-fill-palette-color="primary" id="text-0"></path></svg></g></svg></g></svg></g></svg></g><g></g></svg></g></svg></g><g><path d="M0 154.5v-154.5h154.5v154.5zM149.278 149.278v-144.056h-144.056v144.056z" fill="#5ebc67" fill-rule="nonzero" stroke="none" stroke-width="1" stroke-linecap="butt" stroke-linejoin="miter" stroke-miterlimit="10" stroke-dasharray="" stroke-dashoffset="0" font-family="none" font-weight="none" font-size="none" text-anchor="none" style="mix-blend-mode: normal" data-fill-palette-color="tertiary"></path></g></svg></g><defs></defs></svg><rect width="154.5" height="154.5" fill="none" stroke="none" visibility="hidden"></rect></g></svg></g></svg>